<svg width="60" height="60" viewBox="0 0 60 60" fill="none" xmlns="http://www.w3.org/2000/svg">
<path d="M45.0003 60C48.9785 60 52.7938 58.4196 55.6069 55.6066C58.4199 52.7936 60.0003 48.9782 60.0003 45C60.0003 41.0218 58.4199 37.2064 55.6069 34.3934C52.7938 31.5804 48.9785 30 45.0003 30C41.022 30 37.2067 31.5804 34.3937 34.3934C31.5806 37.2064 30.0003 41.0218 30.0003 45C30.0003 48.9782 31.5806 52.7936 34.3937 55.6066C37.2067 58.4196 41.022 60 45.0003 60ZM47.1431 38.5714V42.8571H51.4288C51.9972 42.8571 52.5422 43.0829 52.9441 43.4848C53.3459 43.8866 53.5717 44.4317 53.5717 45C53.5717 45.5683 53.3459 46.1134 52.9441 46.5152C52.5422 46.9171 51.9972 47.1429 51.4288 47.1429H47.1431V51.4286C47.1431 51.9969 46.9174 52.5419 46.5155 52.9438C46.1136 53.3457 45.5686 53.5714 45.0003 53.5714C44.432 53.5714 43.8869 53.3457 43.485 52.9438C43.0832 52.5419 42.8574 51.9969 42.8574 51.4286V47.1429H38.5717C38.0034 47.1429 37.4583 46.9171 37.0565 46.5152C36.6546 46.1134 36.4289 45.5683 36.4289 45C36.4289 44.4317 36.6546 43.8866 37.0565 43.4848C37.4583 43.0829 38.0034 42.8571 38.5717 42.8571H42.8574V38.5714C42.8574 38.0031 43.0832 37.4581 43.485 37.0562C43.8869 36.6543 44.432 36.4286 45.0003 36.4286C45.5686 36.4286 46.1136 36.6543 46.5155 37.0562C46.9174 37.4581 47.1431 38.0031 47.1431 38.5714ZM38.5717 12.8571C38.5717 16.2671 37.2171 19.5373 34.8059 21.9485C32.3948 24.3597 29.1245 25.7143 25.7146 25.7143C22.3046 25.7143 19.0344 24.3597 16.6232 21.9485C14.212 19.5373 12.8574 16.2671 12.8574 12.8571C12.8574 9.44722 14.212 6.17695 16.6232 3.76577C19.0344 1.35459 22.3046 0 25.7146 0C29.1245 0 32.3948 1.35459 34.8059 3.76577C37.2171 6.17695 38.5717 9.44722 38.5717 12.8571Z" fill="#9FA9D8"/>
<path d="M0 47.1429C0 51.4286 4.28571 51.4286 4.28571 51.4286H26.8114C26.0829 49.3637 25.7118 47.1897 25.7143 45C25.7115 42.2437 26.3008 39.5189 27.4424 37.0101C28.5841 34.5013 30.2514 32.2671 32.3314 30.4586C30.33 30.1629 28.1314 30 25.7143 30C4.28571 30 0 42.8571 0 47.1429Z" fill="#9FA9D8"/>
</svg>
